<?xml version="1.0" encoding="UTF-8" standalone="no"?>
<!DOCTYPE svg PUBLIC "-//W3C//DTD SVG 1.1//EN"
 "http://www.w3.org/Graphics/SVG/1.1/DTD/svg11.dtd">
<!-- Generated by graphviz version 2.43.0 (0)
 -->
<!-- Title: snakemake_dag Pages: 1 -->
<svg width="1187pt" height="620pt"
 viewBox="0.00 0.00 1186.50 620.00" xmlns="http://www.w3.org/2000/svg" xmlns:xlink="http://www.w3.org/1999/xlink">
<g id="graph0" class="graph" transform="scale(1 1) rotate(0) translate(4 616)">
<title>snakemake_dag</title>
<polygon fill="white" stroke="transparent" points="-4,4 -4,-616 1182.5,-616 1182.5,4 -4,4"/>
<!-- 0 -->
<g id="node1" class="node">
<title>0</title>
<path fill="none" stroke="#d89c56" stroke-width="2" d="M634.5,-36C634.5,-36 604.5,-36 604.5,-36 598.5,-36 592.5,-30 592.5,-24 592.5,-24 592.5,-12 592.5,-12 592.5,-6 598.5,0 604.5,0 604.5,0 634.5,0 634.5,0 640.5,0 646.5,-6 646.5,-12 646.5,-12 646.5,-24 646.5,-24 646.5,-30 640.5,-36 634.5,-36"/>
<text text-anchor="middle" x="619.5" y="-15.5" font-family="sans" font-size="10.00">all</text>
</g>
<!-- 1 -->
<g id="node2" class="node">
<title>1</title>
<path fill="none" stroke="#afd856" stroke-width="2" d="M647.5,-108C647.5,-108 591.5,-108 591.5,-108 585.5,-108 579.5,-102 579.5,-96 579.5,-96 579.5,-84 579.5,-84 579.5,-78 585.5,-72 591.5,-72 591.5,-72 647.5,-72 647.5,-72 653.5,-72 659.5,-78 659.5,-84 659.5,-84 659.5,-96 659.5,-96 659.5,-102 653.5,-108 647.5,-108"/>
<text text-anchor="middle" x="619.5" y="-87.5" font-family="sans" font-size="10.00">final_multiqc</text>
</g>
<!-- 1&#45;&gt;0 -->
<g id="edge1" class="edge">
<title>1&#45;&gt;0</title>
<path fill="none" stroke="grey" stroke-width="2" d="M619.5,-71.7C619.5,-63.98 619.5,-54.71 619.5,-46.11"/>
<polygon fill="grey" stroke="grey" stroke-width="2" points="623,-46.1 619.5,-36.1 616,-46.1 623,-46.1"/>
</g>
<!-- 2 -->
<g id="node3" class="node">
<title>2</title>
<path fill="none" stroke="#ced856" stroke-width="2" d="M101,-180C101,-180 12,-180 12,-180 6,-180 0,-174 0,-168 0,-168 0,-156 0,-156 0,-150 6,-144 12,-144 12,-144 101,-144 101,-144 107,-144 113,-150 113,-156 113,-156 113,-168 113,-168 113,-174 107,-180 101,-180"/>
<text text-anchor="middle" x="56.5" y="-165" font-family="sans" font-size="10.00">fastqc</text>
<text text-anchor="middle" x="56.5" y="-154" font-family="sans" font-size="10.00">sample: Sample_01</text>
</g>
<!-- 2&#45;&gt;1 -->
<g id="edge2" class="edge">
<title>2&#45;&gt;1</title>
<path fill="none" stroke="grey" stroke-width="2" d="M113.11,-145.66C115.94,-145.06 118.75,-144.5 121.5,-144 283.57,-114.35 478.57,-99.56 568.95,-93.87"/>
<polygon fill="grey" stroke="grey" stroke-width="2" points="569.42,-97.35 579.19,-93.24 568.99,-90.36 569.42,-97.35"/>
</g>
<!-- 3 -->
<g id="node4" class="node">
<title>3</title>
<path fill="none" stroke="#ced856" stroke-width="2" d="M232,-180C232,-180 143,-180 143,-180 137,-180 131,-174 131,-168 131,-168 131,-156 131,-156 131,-150 137,-144 143,-144 143,-144 232,-144 232,-144 238,-144 244,-150 244,-156 244,-156 244,-168 244,-168 244,-174 238,-180 232,-180"/>
<text text-anchor="middle" x="187.5" y="-165" font-family="sans" font-size="10.00">fastqc</text>
<text text-anchor="middle" x="187.5" y="-154" font-family="sans" font-size="10.00">sample: Sample_02</text>
</g>
<!-- 3&#45;&gt;1 -->
<g id="edge3" class="edge">
<title>3&#45;&gt;1</title>
<path fill="none" stroke="grey" stroke-width="2" d="M244.29,-145.96C247.4,-145.26 250.48,-144.61 253.5,-144 365.55,-121.53 498.72,-104.68 569.47,-96.5"/>
<polygon fill="grey" stroke="grey" stroke-width="2" points="569.91,-99.98 579.45,-95.36 569.12,-93.02 569.91,-99.98"/>
</g>
<!-- 4 -->
<g id="node5" class="node">
<title>4</title>
<path fill="none" stroke="#ced856" stroke-width="2" d="M363,-180C363,-180 274,-180 274,-180 268,-180 262,-174 262,-168 262,-168 262,-156 262,-156 262,-150 268,-144 274,-144 274,-144 363,-144 363,-144 369,-144 375,-150 375,-156 375,-156 375,-168 375,-168 375,-174 369,-180 363,-180"/>
<text text-anchor="middle" x="318.5" y="-165" font-family="sans" font-size="10.00">fastqc</text>
<text text-anchor="middle" x="318.5" y="-154" font-family="sans" font-size="10.00">sample: Sample_03</text>
</g>
<!-- 4&#45;&gt;1 -->
<g id="edge4" class="edge">
<title>4&#45;&gt;1</title>
<path fill="none" stroke="grey" stroke-width="2" d="M375.07,-147.41C379.95,-146.25 384.81,-145.1 389.5,-144 451.38,-129.46 522.71,-113.08 569.33,-102.43"/>
<polygon fill="grey" stroke="grey" stroke-width="2" points="570.2,-105.82 579.17,-100.18 568.65,-99 570.2,-105.82"/>
</g>
<!-- 5 -->
<g id="node6" class="node">
<title>5</title>
<path fill="none" stroke="#567bd8" stroke-width="2" d="M525,-540C525,-540 436,-540 436,-540 430,-540 424,-534 424,-528 424,-528 424,-516 424,-516 424,-510 430,-504 436,-504 436,-504 525,-504 525,-504 531,-504 537,-510 537,-516 537,-516 537,-528 537,-528 537,-534 531,-540 525,-540"/>
<text text-anchor="middle" x="480.5" y="-525" font-family="sans" font-size="10.00">trim_fastq</text>
<text text-anchor="middle" x="480.5" y="-514" font-family="sans" font-size="10.00">sample: Sample_01</text>
</g>
<!-- 5&#45;&gt;1 -->
<g id="edge5" class="edge">
<title>5&#45;&gt;1</title>
<path fill="none" stroke="grey" stroke-width="2" d="M463.79,-503.81C441.15,-478.62 403.5,-429.2 403.5,-379 403.5,-379 403.5,-379 403.5,-233 403.5,-153.98 505.69,-116.48 569.49,-100.77"/>
<polygon fill="grey" stroke="grey" stroke-width="2" points="570.45,-104.14 579.38,-98.44 568.84,-97.33 570.45,-104.14"/>
</g>
<!-- 8 -->
<g id="node9" class="node">
<title>8</title>
<path fill="none" stroke="#56d8a9" stroke-width="2" d="M517.5,-396C517.5,-396 443.5,-396 443.5,-396 437.5,-396 431.5,-390 431.5,-384 431.5,-384 431.5,-372 431.5,-372 431.5,-366 437.5,-360 443.5,-360 443.5,-360 517.5,-360 517.5,-360 523.5,-360 529.5,-366 529.5,-372 529.5,-372 529.5,-384 529.5,-384 529.5,-390 523.5,-396 517.5,-396"/>
<text text-anchor="middle" x="480.5" y="-375.5" font-family="sans" font-size="10.00">post_trim_fastqc</text>
</g>
<!-- 5&#45;&gt;8 -->
<g id="edge17" class="edge">
<title>5&#45;&gt;8</title>
<path fill="none" stroke="grey" stroke-width="2" d="M480.5,-503.87C480.5,-479.67 480.5,-435.21 480.5,-406.39"/>
<polygon fill="grey" stroke="grey" stroke-width="2" points="484,-406.19 480.5,-396.19 477,-406.19 484,-406.19"/>
</g>
<!-- 13 -->
<g id="node14" class="node">
<title>13</title>
<path fill="none" stroke="#d85656" stroke-width="2" d="M600.5,-468C600.5,-468 558.5,-468 558.5,-468 552.5,-468 546.5,-462 546.5,-456 546.5,-456 546.5,-444 546.5,-444 546.5,-438 552.5,-432 558.5,-432 558.5,-432 600.5,-432 600.5,-432 606.5,-432 612.5,-438 612.5,-444 612.5,-444 612.5,-456 612.5,-456 612.5,-462 606.5,-468 600.5,-468"/>
<text text-anchor="middle" x="579.5" y="-447.5" font-family="sans" font-size="10.00">alignment</text>
</g>
<!-- 5&#45;&gt;13 -->
<g id="edge23" class="edge">
<title>5&#45;&gt;13</title>
<path fill="none" stroke="grey" stroke-width="2" d="M504.72,-503.88C517.42,-494.89 533.16,-483.76 546.92,-474.03"/>
<polygon fill="grey" stroke="grey" stroke-width="2" points="549.04,-476.82 555.19,-468.19 545,-471.11 549.04,-476.82"/>
</g>
<!-- 6 -->
<g id="node7" class="node">
<title>6</title>
<path fill="none" stroke="#567bd8" stroke-width="2" d="M943,-540C943,-540 854,-540 854,-540 848,-540 842,-534 842,-528 842,-528 842,-516 842,-516 842,-510 848,-504 854,-504 854,-504 943,-504 943,-504 949,-504 955,-510 955,-516 955,-516 955,-528 955,-528 955,-534 949,-540 943,-540"/>
<text text-anchor="middle" x="898.5" y="-525" font-family="sans" font-size="10.00">trim_fastq</text>
<text text-anchor="middle" x="898.5" y="-514" font-family="sans" font-size="10.00">sample: Sample_02</text>
</g>
<!-- 6&#45;&gt;1 -->
<g id="edge6" class="edge">
<title>6&#45;&gt;1</title>
<path fill="none" stroke="grey" stroke-width="2" d="M898.5,-503.95C898.5,-477.29 898.5,-424.11 898.5,-379 898.5,-379 898.5,-379 898.5,-305 898.5,-233 929.1,-197.13 880.5,-144 852.71,-113.62 737.25,-99.86 669.57,-94.3"/>
<polygon fill="grey" stroke="grey" stroke-width="2" points="669.78,-90.8 659.54,-93.5 669.23,-97.78 669.78,-90.8"/>
</g>
<!-- 9 -->
<g id="node10" class="node">
<title>9</title>
<path fill="none" stroke="#56d8a9" stroke-width="2" d="M1012.5,-324C1012.5,-324 938.5,-324 938.5,-324 932.5,-324 926.5,-318 926.5,-312 926.5,-312 926.5,-300 926.5,-300 926.5,-294 932.5,-288 938.5,-288 938.5,-288 1012.5,-288 1012.5,-288 1018.5,-288 1024.5,-294 1024.5,-300 1024.5,-300 1024.5,-312 1024.5,-312 1024.5,-318 1018.5,-324 1012.5,-324"/>
<text text-anchor="middle" x="975.5" y="-303.5" font-family="sans" font-size="10.00">post_trim_fastqc</text>
</g>
<!-- 6&#45;&gt;9 -->
<g id="edge18" class="edge">
<title>6&#45;&gt;9</title>
<path fill="none" stroke="grey" stroke-width="2" d="M904.67,-503.85C918.05,-466.68 949.8,-378.44 965.85,-333.82"/>
<polygon fill="grey" stroke="grey" stroke-width="2" points="969.21,-334.83 969.3,-324.23 962.62,-332.46 969.21,-334.83"/>
</g>
<!-- 19 -->
<g id="node20" class="node">
<title>19</title>
<path fill="none" stroke="#d85656" stroke-width="2" d="M717.5,-468C717.5,-468 675.5,-468 675.5,-468 669.5,-468 663.5,-462 663.5,-456 663.5,-456 663.5,-444 663.5,-444 663.5,-438 669.5,-432 675.5,-432 675.5,-432 717.5,-432 717.5,-432 723.5,-432 729.5,-438 729.5,-444 729.5,-444 729.5,-456 729.5,-456 729.5,-462 723.5,-468 717.5,-468"/>
<text text-anchor="middle" x="696.5" y="-447.5" font-family="sans" font-size="10.00">alignment</text>
</g>
<!-- 6&#45;&gt;19 -->
<g id="edge31" class="edge">
<title>6&#45;&gt;19</title>
<path fill="none" stroke="grey" stroke-width="2" d="M844.13,-503.96C815.34,-494.71 779.22,-482.75 739.51,-468.28"/>
<polygon fill="grey" stroke="grey" stroke-width="2" points="740.49,-464.91 729.89,-464.74 738.08,-471.48 740.49,-464.91"/>
</g>
<!-- 7 -->
<g id="node8" class="node">
<title>7</title>
<path fill="none" stroke="#567bd8" stroke-width="2" d="M1097,-540C1097,-540 1008,-540 1008,-540 1002,-540 996,-534 996,-528 996,-528 996,-516 996,-516 996,-510 1002,-504 1008,-504 1008,-504 1097,-504 1097,-504 1103,-504 1109,-510 1109,-516 1109,-516 1109,-528 1109,-528 1109,-534 1103,-540 1097,-540"/>
<text text-anchor="middle" x="1052.5" y="-525" font-family="sans" font-size="10.00">trim_fastq</text>
<text text-anchor="middle" x="1052.5" y="-514" font-family="sans" font-size="10.00">sample: Sample_03</text>
</g>
<!-- 7&#45;&gt;1 -->
<g id="edge7" class="edge">
<title>7&#45;&gt;1</title>
<path fill="none" stroke="grey" stroke-width="2" d="M1052.5,-503.95C1052.5,-477.29 1052.5,-424.11 1052.5,-379 1052.5,-379 1052.5,-379 1052.5,-233 1052.5,-169.77 999.25,-169.75 941.5,-144 851.37,-103.81 734.82,-93.77 669.53,-91.46"/>
<polygon fill="grey" stroke="grey" stroke-width="2" points="669.61,-87.96 659.5,-91.16 669.39,-94.96 669.61,-87.96"/>
</g>
<!-- 10 -->
<g id="node11" class="node">
<title>10</title>
<path fill="none" stroke="#56d8a9" stroke-width="2" d="M1166.5,-252C1166.5,-252 1092.5,-252 1092.5,-252 1086.5,-252 1080.5,-246 1080.5,-240 1080.5,-240 1080.5,-228 1080.5,-228 1080.5,-222 1086.5,-216 1092.5,-216 1092.5,-216 1166.5,-216 1166.5,-216 1172.5,-216 1178.5,-222 1178.5,-228 1178.5,-228 1178.5,-240 1178.5,-240 1178.5,-246 1172.5,-252 1166.5,-252"/>
<text text-anchor="middle" x="1129.5" y="-231.5" font-family="sans" font-size="10.00">post_trim_fastqc</text>
</g>
<!-- 7&#45;&gt;10 -->
<g id="edge19" class="edge">
<title>7&#45;&gt;10</title>
<path fill="none" stroke="grey" stroke-width="2" d="M1057.09,-503.97C1069.95,-456.19 1106.45,-320.62 1122.16,-262.27"/>
<polygon fill="grey" stroke="grey" stroke-width="2" points="1125.62,-262.87 1124.84,-252.31 1118.86,-261.05 1125.62,-262.87"/>
</g>
<!-- 23 -->
<g id="node24" class="node">
<title>23</title>
<path fill="none" stroke="#d85656" stroke-width="2" d="M801.5,-468C801.5,-468 759.5,-468 759.5,-468 753.5,-468 747.5,-462 747.5,-456 747.5,-456 747.5,-444 747.5,-444 747.5,-438 753.5,-432 759.5,-432 759.5,-432 801.5,-432 801.5,-432 807.5,-432 813.5,-438 813.5,-444 813.5,-444 813.5,-456 813.5,-456 813.5,-462 807.5,-468 801.5,-468"/>
<text text-anchor="middle" x="780.5" y="-447.5" font-family="sans" font-size="10.00">alignment</text>
</g>
<!-- 7&#45;&gt;23 -->
<g id="edge38" class="edge">
<title>7&#45;&gt;23</title>
<path fill="none" stroke="grey" stroke-width="2" d="M995.81,-506.41C944.46,-493.2 869.93,-474.01 823.38,-462.04"/>
<polygon fill="grey" stroke="grey" stroke-width="2" points="824.17,-458.62 813.61,-459.52 822.42,-465.4 824.17,-458.62"/>
</g>
<!-- 8&#45;&gt;1 -->
<g id="edge8" class="edge">
<title>8&#45;&gt;1</title>
<path fill="none" stroke="grey" stroke-width="2" d="M474.99,-359.74C462.71,-317.62 438.06,-208.34 489.5,-144 509.02,-119.58 541.61,-106.33 569.27,-99.18"/>
<polygon fill="grey" stroke="grey" stroke-width="2" points="570.29,-102.54 579.21,-96.82 568.67,-95.73 570.29,-102.54"/>
</g>
<!-- 9&#45;&gt;1 -->
<g id="edge9" class="edge">
<title>9&#45;&gt;1</title>
<path fill="none" stroke="grey" stroke-width="2" d="M974.23,-287.76C970.8,-254.39 958.29,-181.02 913.5,-144 877.09,-113.9 743.61,-99.8 669.66,-94.17"/>
<polygon fill="grey" stroke="grey" stroke-width="2" points="669.86,-90.68 659.63,-93.43 669.35,-97.66 669.86,-90.68"/>
</g>
<!-- 10&#45;&gt;1 -->
<g id="edge10" class="edge">
<title>10&#45;&gt;1</title>
<path fill="none" stroke="grey" stroke-width="2" d="M1122.64,-215.92C1113.31,-195.1 1094.49,-160.64 1066.5,-144 1000.42,-104.71 771.9,-94.51 669.64,-91.89"/>
<polygon fill="grey" stroke="grey" stroke-width="2" points="669.65,-88.39 659.56,-91.65 669.48,-95.39 669.65,-88.39"/>
</g>
<!-- 11 -->
<g id="node12" class="node">
<title>11</title>
<path fill="none" stroke="#56d88a" stroke-width="2" d="M572.5,-252C572.5,-252 498.5,-252 498.5,-252 492.5,-252 486.5,-246 486.5,-240 486.5,-240 486.5,-228 486.5,-228 486.5,-222 492.5,-216 498.5,-216 498.5,-216 572.5,-216 572.5,-216 578.5,-216 584.5,-222 584.5,-228 584.5,-228 584.5,-240 584.5,-240 584.5,-246 578.5,-252 572.5,-252"/>
<text text-anchor="middle" x="535.5" y="-231.5" font-family="sans" font-size="10.00">mark_duplicates</text>
</g>
<!-- 11&#45;&gt;1 -->
<g id="edge11" class="edge">
<title>11&#45;&gt;1</title>
<path fill="none" stroke="grey" stroke-width="2" d="M519.4,-215.99C503.78,-197.35 484.49,-167.04 499.5,-144 514.98,-120.25 543.77,-107.06 569.28,-99.79"/>
<polygon fill="grey" stroke="grey" stroke-width="2" points="570.43,-103.1 579.22,-97.19 568.66,-96.33 570.43,-103.1"/>
</g>
<!-- 25 -->
<g id="node26" class="node">
<title>25</title>
<path fill="none" stroke="#d87556" stroke-width="2" d="M579,-180C579,-180 520,-180 520,-180 514,-180 508,-174 508,-168 508,-168 508,-156 508,-156 508,-150 514,-144 520,-144 520,-144 579,-144 579,-144 585,-144 591,-150 591,-156 591,-156 591,-168 591,-168 591,-174 585,-180 579,-180"/>
<text text-anchor="middle" x="549.5" y="-159.5" font-family="sans" font-size="10.00">alignment_qc</text>
</g>
<!-- 11&#45;&gt;25 -->
<g id="edge42" class="edge">
<title>11&#45;&gt;25</title>
<path fill="none" stroke="grey" stroke-width="2" d="M538.96,-215.7C540.5,-207.98 542.36,-198.71 544.08,-190.11"/>
<polygon fill="grey" stroke="grey" stroke-width="2" points="547.55,-190.6 546.08,-180.1 540.69,-189.22 547.55,-190.6"/>
</g>
<!-- 12 -->
<g id="node13" class="node">
<title>12</title>
<path fill="none" stroke="#569ad8" stroke-width="2" d="M597.5,-396C597.5,-396 559.5,-396 559.5,-396 553.5,-396 547.5,-390 547.5,-384 547.5,-384 547.5,-372 547.5,-372 547.5,-366 553.5,-360 559.5,-360 559.5,-360 597.5,-360 597.5,-360 603.5,-360 609.5,-366 609.5,-372 609.5,-372 609.5,-384 609.5,-384 609.5,-390 603.5,-396 597.5,-396"/>
<text text-anchor="middle" x="578.5" y="-375.5" font-family="sans" font-size="10.00">sort_bam</text>
</g>
<!-- 12&#45;&gt;11 -->
<g id="edge20" class="edge">
<title>12&#45;&gt;11</title>
<path fill="none" stroke="grey" stroke-width="2" d="M559.03,-359.92C549.68,-350.4 539.45,-337.72 534.5,-324 527.38,-304.29 528.09,-280.48 530.32,-262.45"/>
<polygon fill="grey" stroke="grey" stroke-width="2" points="533.82,-262.73 531.81,-252.32 526.9,-261.71 533.82,-262.73"/>
</g>
<!-- 16 -->
<g id="node17" class="node">
<title>16</title>
<path fill="none" stroke="#88d856" stroke-width="2" d="M602,-324C602,-324 555,-324 555,-324 549,-324 543,-318 543,-312 543,-312 543,-300 543,-300 543,-294 549,-288 555,-288 555,-288 602,-288 602,-288 608,-288 614,-294 614,-300 614,-300 614,-312 614,-312 614,-318 608,-324 602,-324"/>
<text text-anchor="middle" x="578.5" y="-303.5" font-family="sans" font-size="10.00">index_bam</text>
</g>
<!-- 12&#45;&gt;16 -->
<g id="edge27" class="edge">
<title>12&#45;&gt;16</title>
<path fill="none" stroke="grey" stroke-width="2" d="M578.5,-359.7C578.5,-351.98 578.5,-342.71 578.5,-334.11"/>
<polygon fill="grey" stroke="grey" stroke-width="2" points="582,-334.1 578.5,-324.1 575,-334.1 582,-334.1"/>
</g>
<!-- 13&#45;&gt;12 -->
<g id="edge22" class="edge">
<title>13&#45;&gt;12</title>
<path fill="none" stroke="grey" stroke-width="2" d="M579.25,-431.7C579.14,-423.98 579.01,-414.71 578.89,-406.11"/>
<polygon fill="grey" stroke="grey" stroke-width="2" points="582.39,-406.05 578.74,-396.1 575.39,-406.15 582.39,-406.05"/>
</g>
<!-- 14 -->
<g id="node15" class="node">
<title>14</title>
<path fill="none" stroke="#d8bc56" stroke-width="2" d="M746.5,-612C746.5,-612 654.5,-612 654.5,-612 648.5,-612 642.5,-606 642.5,-600 642.5,-600 642.5,-588 642.5,-588 642.5,-582 648.5,-576 654.5,-576 654.5,-576 746.5,-576 746.5,-576 752.5,-576 758.5,-582 758.5,-588 758.5,-588 758.5,-600 758.5,-600 758.5,-606 752.5,-612 746.5,-612"/>
<text text-anchor="middle" x="700.5" y="-591.5" font-family="sans" font-size="10.00">download_reference</text>
</g>
<!-- 14&#45;&gt;13 -->
<g id="edge24" class="edge">
<title>14&#45;&gt;13</title>
<path fill="none" stroke="grey" stroke-width="2" d="M654.78,-575.93C637.52,-567.46 619.04,-555.64 606.5,-540 592.33,-522.33 585.58,-497.31 582.38,-478.29"/>
<polygon fill="grey" stroke="grey" stroke-width="2" points="585.81,-477.56 580.9,-468.16 578.88,-478.56 585.81,-477.56"/>
</g>
<!-- 15 -->
<g id="node16" class="node">
<title>15</title>
<path fill="none" stroke="#68d856" stroke-width="2" d="M698,-540C698,-540 627,-540 627,-540 621,-540 615,-534 615,-528 615,-528 615,-516 615,-516 615,-510 621,-504 627,-504 627,-504 698,-504 698,-504 704,-504 710,-510 710,-516 710,-516 710,-528 710,-528 710,-534 704,-540 698,-540"/>
<text text-anchor="middle" x="662.5" y="-519.5" font-family="sans" font-size="10.00">index_reference</text>
</g>
<!-- 14&#45;&gt;15 -->
<g id="edge26" class="edge">
<title>14&#45;&gt;15</title>
<path fill="none" stroke="grey" stroke-width="2" d="M691.11,-575.7C686.74,-567.64 681.44,-557.89 676.6,-548.98"/>
<polygon fill="grey" stroke="grey" stroke-width="2" points="679.63,-547.22 671.79,-540.1 673.48,-550.56 679.63,-547.22"/>
</g>
<!-- 14&#45;&gt;19 -->
<g id="edge32" class="edge">
<title>14&#45;&gt;19</title>
<path fill="none" stroke="grey" stroke-width="2" d="M708.39,-575.75C712.61,-565.58 717.36,-552.33 719.5,-540 722.24,-524.24 722.75,-519.67 719.5,-504 717.62,-494.96 714.13,-485.58 710.41,-477.26"/>
<polygon fill="grey" stroke="grey" stroke-width="2" points="713.5,-475.6 706.04,-468.07 707.18,-478.61 713.5,-475.6"/>
</g>
<!-- 14&#45;&gt;23 -->
<g id="edge39" class="edge">
<title>14&#45;&gt;23</title>
<path fill="none" stroke="grey" stroke-width="2" d="M712.25,-575.59C719,-565.37 727.5,-552.12 734.5,-540 746.39,-519.41 758.7,-495.44 767.59,-477.56"/>
<polygon fill="grey" stroke="grey" stroke-width="2" points="770.86,-478.83 772.15,-468.32 764.58,-475.74 770.86,-478.83"/>
</g>
<!-- 15&#45;&gt;13 -->
<g id="edge25" class="edge">
<title>15&#45;&gt;13</title>
<path fill="none" stroke="grey" stroke-width="2" d="M641.98,-503.7C631.63,-494.97 618.91,-484.24 607.66,-474.75"/>
<polygon fill="grey" stroke="grey" stroke-width="2" points="609.68,-471.88 599.78,-468.1 605.17,-477.23 609.68,-471.88"/>
</g>
<!-- 15&#45;&gt;19 -->
<g id="edge33" class="edge">
<title>15&#45;&gt;19</title>
<path fill="none" stroke="grey" stroke-width="2" d="M670.9,-503.7C674.77,-495.73 679.45,-486.1 683.74,-477.26"/>
<polygon fill="grey" stroke="grey" stroke-width="2" points="686.97,-478.63 688.19,-468.1 680.67,-475.57 686.97,-478.63"/>
</g>
<!-- 15&#45;&gt;23 -->
<g id="edge40" class="edge">
<title>15&#45;&gt;23</title>
<path fill="none" stroke="grey" stroke-width="2" d="M691.37,-503.88C706.79,-494.72 725.98,-483.34 742.6,-473.48"/>
<polygon fill="grey" stroke="grey" stroke-width="2" points="744.71,-476.3 751.52,-468.19 741.14,-470.28 744.71,-476.3"/>
</g>
<!-- 16&#45;&gt;11 -->
<g id="edge21" class="edge">
<title>16&#45;&gt;11</title>
<path fill="none" stroke="grey" stroke-width="2" d="M567.87,-287.7C562.87,-279.56 556.81,-269.69 551.29,-260.7"/>
<polygon fill="grey" stroke="grey" stroke-width="2" points="554.22,-258.79 546.01,-252.1 548.26,-262.46 554.22,-258.79"/>
</g>
<!-- 17 -->
<g id="node18" class="node">
<title>17</title>
<path fill="none" stroke="#56d88a" stroke-width="2" d="M692.5,-252C692.5,-252 618.5,-252 618.5,-252 612.5,-252 606.5,-246 606.5,-240 606.5,-240 606.5,-228 606.5,-228 606.5,-222 612.5,-216 618.5,-216 618.5,-216 692.5,-216 692.5,-216 698.5,-216 704.5,-222 704.5,-228 704.5,-228 704.5,-240 704.5,-240 704.5,-246 698.5,-252 692.5,-252"/>
<text text-anchor="middle" x="655.5" y="-231.5" font-family="sans" font-size="10.00">mark_duplicates</text>
</g>
<!-- 17&#45;&gt;1 -->
<g id="edge12" class="edge">
<title>17&#45;&gt;1</title>
<path fill="none" stroke="grey" stroke-width="2" d="M650,-215.9C646.75,-205.56 642.68,-192.08 639.5,-180 634.1,-159.45 628.86,-136 625.11,-118.33"/>
<polygon fill="grey" stroke="grey" stroke-width="2" points="628.45,-117.22 622.97,-108.15 621.6,-118.66 628.45,-117.22"/>
</g>
<!-- 26 -->
<g id="node27" class="node">
<title>26</title>
<path fill="none" stroke="#d87556" stroke-width="2" d="M719,-180C719,-180 660,-180 660,-180 654,-180 648,-174 648,-168 648,-168 648,-156 648,-156 648,-150 654,-144 660,-144 660,-144 719,-144 719,-144 725,-144 731,-150 731,-156 731,-156 731,-168 731,-168 731,-174 725,-180 719,-180"/>
<text text-anchor="middle" x="689.5" y="-159.5" font-family="sans" font-size="10.00">alignment_qc</text>
</g>
<!-- 17&#45;&gt;26 -->
<g id="edge43" class="edge">
<title>17&#45;&gt;26</title>
<path fill="none" stroke="grey" stroke-width="2" d="M663.9,-215.7C667.77,-207.73 672.45,-198.1 676.74,-189.26"/>
<polygon fill="grey" stroke="grey" stroke-width="2" points="679.97,-190.63 681.19,-180.1 673.67,-187.57 679.97,-190.63"/>
</g>
<!-- 18 -->
<g id="node19" class="node">
<title>18</title>
<path fill="none" stroke="#569ad8" stroke-width="2" d="M715.5,-396C715.5,-396 677.5,-396 677.5,-396 671.5,-396 665.5,-390 665.5,-384 665.5,-384 665.5,-372 665.5,-372 665.5,-366 671.5,-360 677.5,-360 677.5,-360 715.5,-360 715.5,-360 721.5,-360 727.5,-366 727.5,-372 727.5,-372 727.5,-384 727.5,-384 727.5,-390 721.5,-396 715.5,-396"/>
<text text-anchor="middle" x="696.5" y="-375.5" font-family="sans" font-size="10.00">sort_bam</text>
</g>
<!-- 18&#45;&gt;17 -->
<g id="edge28" class="edge">
<title>18&#45;&gt;17</title>
<path fill="none" stroke="grey" stroke-width="2" d="M682.5,-359.98C675.2,-350.1 666.89,-337.06 662.5,-324 655.8,-304.08 654.23,-280.28 654.24,-262.31"/>
<polygon fill="grey" stroke="grey" stroke-width="2" points="657.74,-262.28 654.41,-252.22 650.74,-262.16 657.74,-262.28"/>
</g>
<!-- 20 -->
<g id="node21" class="node">
<title>20</title>
<path fill="none" stroke="#88d856" stroke-width="2" d="M730,-324C730,-324 683,-324 683,-324 677,-324 671,-318 671,-312 671,-312 671,-300 671,-300 671,-294 677,-288 683,-288 683,-288 730,-288 730,-288 736,-288 742,-294 742,-300 742,-300 742,-312 742,-312 742,-318 736,-324 730,-324"/>
<text text-anchor="middle" x="706.5" y="-303.5" font-family="sans" font-size="10.00">index_bam</text>
</g>
<!-- 18&#45;&gt;20 -->
<g id="edge34" class="edge">
<title>18&#45;&gt;20</title>
<path fill="none" stroke="grey" stroke-width="2" d="M698.97,-359.7C700.07,-351.98 701.4,-342.71 702.63,-334.11"/>
<polygon fill="grey" stroke="grey" stroke-width="2" points="706.11,-334.5 704.06,-324.1 699.18,-333.51 706.11,-334.5"/>
</g>
<!-- 19&#45;&gt;18 -->
<g id="edge30" class="edge">
<title>19&#45;&gt;18</title>
<path fill="none" stroke="grey" stroke-width="2" d="M696.5,-431.7C696.5,-423.98 696.5,-414.71 696.5,-406.11"/>
<polygon fill="grey" stroke="grey" stroke-width="2" points="700,-406.1 696.5,-396.1 693,-406.1 700,-406.1"/>
</g>
<!-- 20&#45;&gt;17 -->
<g id="edge29" class="edge">
<title>20&#45;&gt;17</title>
<path fill="none" stroke="grey" stroke-width="2" d="M693.89,-287.7C687.9,-279.47 680.62,-269.48 674.02,-260.42"/>
<polygon fill="grey" stroke="grey" stroke-width="2" points="676.68,-258.13 667.96,-252.1 671.02,-262.25 676.68,-258.13"/>
</g>
<!-- 21 -->
<g id="node22" class="node">
<title>21</title>
<path fill="none" stroke="#56d88a" stroke-width="2" d="M832.5,-252C832.5,-252 758.5,-252 758.5,-252 752.5,-252 746.5,-246 746.5,-240 746.5,-240 746.5,-228 746.5,-228 746.5,-222 752.5,-216 758.5,-216 758.5,-216 832.5,-216 832.5,-216 838.5,-216 844.5,-222 844.5,-228 844.5,-228 844.5,-240 844.5,-240 844.5,-246 838.5,-252 832.5,-252"/>
<text text-anchor="middle" x="795.5" y="-231.5" font-family="sans" font-size="10.00">mark_duplicates</text>
</g>
<!-- 21&#45;&gt;1 -->
<g id="edge13" class="edge">
<title>21&#45;&gt;1</title>
<path fill="none" stroke="grey" stroke-width="2" d="M788.64,-215.77C780.03,-196.08 763.54,-164.01 740.5,-144 720.03,-126.22 692.66,-113.56 669.14,-105.09"/>
<polygon fill="grey" stroke="grey" stroke-width="2" points="670.25,-101.77 659.66,-101.82 667.97,-108.39 670.25,-101.77"/>
</g>
<!-- 27 -->
<g id="node28" class="node">
<title>27</title>
<path fill="none" stroke="#d87556" stroke-width="2" d="M859,-180C859,-180 800,-180 800,-180 794,-180 788,-174 788,-168 788,-168 788,-156 788,-156 788,-150 794,-144 800,-144 800,-144 859,-144 859,-144 865,-144 871,-150 871,-156 871,-156 871,-168 871,-168 871,-174 865,-180 859,-180"/>
<text text-anchor="middle" x="829.5" y="-159.5" font-family="sans" font-size="10.00">alignment_qc</text>
</g>
<!-- 21&#45;&gt;27 -->
<g id="edge44" class="edge">
<title>21&#45;&gt;27</title>
<path fill="none" stroke="grey" stroke-width="2" d="M803.9,-215.7C807.77,-207.73 812.45,-198.1 816.74,-189.26"/>
<polygon fill="grey" stroke="grey" stroke-width="2" points="819.97,-190.63 821.19,-180.1 813.67,-187.57 819.97,-190.63"/>
</g>
<!-- 22 -->
<g id="node23" class="node">
<title>22</title>
<path fill="none" stroke="#569ad8" stroke-width="2" d="M799.5,-396C799.5,-396 761.5,-396 761.5,-396 755.5,-396 749.5,-390 749.5,-384 749.5,-384 749.5,-372 749.5,-372 749.5,-366 755.5,-360 761.5,-360 761.5,-360 799.5,-360 799.5,-360 805.5,-360 811.5,-366 811.5,-372 811.5,-372 811.5,-384 811.5,-384 811.5,-390 805.5,-396 799.5,-396"/>
<text text-anchor="middle" x="780.5" y="-375.5" font-family="sans" font-size="10.00">sort_bam</text>
</g>
<!-- 22&#45;&gt;21 -->
<g id="edge35" class="edge">
<title>22&#45;&gt;21</title>
<path fill="none" stroke="grey" stroke-width="2" d="M782.31,-359.87C784.87,-335.67 789.56,-291.21 792.61,-262.39"/>
<polygon fill="grey" stroke="grey" stroke-width="2" points="796.11,-262.5 793.68,-252.19 789.15,-261.77 796.11,-262.5"/>
</g>
<!-- 24 -->
<g id="node25" class="node">
<title>24</title>
<path fill="none" stroke="#88d856" stroke-width="2" d="M858,-324C858,-324 811,-324 811,-324 805,-324 799,-318 799,-312 799,-312 799,-300 799,-300 799,-294 805,-288 811,-288 811,-288 858,-288 858,-288 864,-288 870,-294 870,-300 870,-300 870,-312 870,-312 870,-318 864,-324 858,-324"/>
<text text-anchor="middle" x="834.5" y="-303.5" font-family="sans" font-size="10.00">index_bam</text>
</g>
<!-- 22&#45;&gt;24 -->
<g id="edge41" class="edge">
<title>22&#45;&gt;24</title>
<path fill="none" stroke="grey" stroke-width="2" d="M793.85,-359.7C800.26,-351.39 808.06,-341.28 815.11,-332.14"/>
<polygon fill="grey" stroke="grey" stroke-width="2" points="817.97,-334.16 821.31,-324.1 812.43,-329.88 817.97,-334.16"/>
</g>
<!-- 23&#45;&gt;22 -->
<g id="edge37" class="edge">
<title>23&#45;&gt;22</title>
<path fill="none" stroke="grey" stroke-width="2" d="M780.5,-431.7C780.5,-423.98 780.5,-414.71 780.5,-406.11"/>
<polygon fill="grey" stroke="grey" stroke-width="2" points="784,-406.1 780.5,-396.1 777,-406.1 784,-406.1"/>
</g>
<!-- 24&#45;&gt;21 -->
<g id="edge36" class="edge">
<title>24&#45;&gt;21</title>
<path fill="none" stroke="grey" stroke-width="2" d="M824.86,-287.7C820.37,-279.64 814.94,-269.89 809.98,-260.98"/>
<polygon fill="grey" stroke="grey" stroke-width="2" points="812.95,-259.14 805.03,-252.1 806.84,-262.54 812.95,-259.14"/>
</g>
<!-- 25&#45;&gt;1 -->
<g id="edge14" class="edge">
<title>25&#45;&gt;1</title>
<path fill="none" stroke="grey" stroke-width="2" d="M566.8,-143.7C575.36,-135.14 585.84,-124.66 595.2,-115.3"/>
<polygon fill="grey" stroke="grey" stroke-width="2" points="597.8,-117.65 602.4,-108.1 592.85,-112.7 597.8,-117.65"/>
</g>
<!-- 26&#45;&gt;1 -->
<g id="edge15" class="edge">
<title>26&#45;&gt;1</title>
<path fill="none" stroke="grey" stroke-width="2" d="M672.2,-143.7C663.64,-135.14 653.16,-124.66 643.8,-115.3"/>
<polygon fill="grey" stroke="grey" stroke-width="2" points="646.15,-112.7 636.6,-108.1 641.2,-117.65 646.15,-112.7"/>
</g>
<!-- 27&#45;&gt;1 -->
<g id="edge16" class="edge">
<title>27&#45;&gt;1</title>
<path fill="none" stroke="grey" stroke-width="2" d="M787.76,-147.09C753.76,-135.75 705.64,-119.71 669.57,-107.69"/>
<polygon fill="grey" stroke="grey" stroke-width="2" points="670.33,-104.25 659.74,-104.41 668.12,-110.89 670.33,-104.25"/>
</g>
</g>
</svg>
